# xmcd
# 
# Track frame offsets:
#   150
#   17304
#   35216
#   52310
#   66030
#   85197
#   102822
#   122254
#   139576
#   153750
#   173254
#   191317
#   209822
#   224701
#   245661
# 
# Disc length: 3460 seconds
# 
# Revision: 0
# Processed by: cddbd v1.5.1PL2 Copyright (c) Steve Scherf et al.
# Submitted via: Synapstar 1.0 
# 
DISCID=cc0d820f
DTITLE=Various Artist - Music Maestro
DYEAR=1900
DGENRE=Country
TTITLE0=Dixie Chicks - Long Time Gone
TTITLE1=Tim McGraw - Unbroken
TTITLE2=Lee Ann Womack - Something Worth Leaving Behind
TTITLE3=Garth Brooks - Thicker Than Blood
TTITLE4=Alan Jackson - Work In Progress
TTITLE5=Keith Urban - Somebody Like You
TTITLE6=Montgomery Gentry - My Town
TTITLE7=Rascal Flatts - These Days
TTITLE8=Kevin Denny - Cadillac Tears
TTITLE9=Trisha Yearwood - i Don't Paint Myself Into Corners
TTITLE10=Willie Nelson - Maria (shut up and kiss me)
TTITLE11=Tommy Shane Steiner - Tell Me Where It Hurts
TTITLE12=Eric Heatherly - Last Man Committed
TTITLE13=Tammy Cochran - Life Happened
TTITLE14=Emerson Drive - Fall Into Me
EXTD=MediaType: Karaoke CD+G Producer: Music Maestro
EXTT0=
EXTT1=
EXTT2=
EXTT3=
EXTT4=
EXTT5=
EXTT6=
EXTT7=
EXTT8=
EXTT9=
EXTT10=
EXTT11=
EXTT12=
EXTT13=
EXTT14=
PLAYORDER=
